# xmcd
#
# Track frame offsets:
# 150
# 23124
# 43947
# 60382
# 81298
# 101816
# 123744
# 137219
# 151922
# 183302
# 215666
# 234813
# 250199
# 268993
# 300157
# 315224
# 329687
#
# Disc length: 4712 seconds
#
#
# Revision: 0
# Processed by: cddbd v1.5.2PL0 Copyright (c) Steve Scherf et al.
# Submitted via: FreeRIP 2.941 
#
DISCID=eb126611
DTITLE=SUYAY PACHA - ESPERANZA DE LA TIERA
DYEAR=2007
DGENRE=Folklore
TTITLE0=Celia y por los caminos
TTITLE1=El condor pasa
TTITLE2=Candombe para Jose
TTITLE3=Quien ha perdido perdon
TTITLE4=Dame tiempo
TTITLE5=Yo te amare siempre
TTITLE6=El humahuaqueno
TTITLE7=Los sonidos del silencio
TTITLE8=Tomame
TTITLE9=Guadalquivir
TTITLE10=El tren del cielo
TTITLE11=Romeo y Julieta
TTITLE12=Por no tener tu amor
TTITLE13=Way ay ay
TTITLE14=Romance de Vicente y Quena
TTITLE15=Tal vez si, Tal vez no
TTITLE16=Seleccion de carnavalitos
EXTD=registrado en la pena balderrama salta
EXTT0=
EXTT1=
EXTT2=
EXTT3=
EXTT4=
EXTT5=
EXTT6=
EXTT7=
EXTT8=
EXTT9=
EXTT10=
EXTT11=
EXTT12=
EXTT13=
EXTT14=
EXTT15=
EXTT16=
PLAYORDER=
